<svg width="54" height="51" viewBox="0 0 54 51" fill="none" xmlns="http://www.w3.org/2000/svg">
    <path
        d="M27 0C12.0847 0 0 11.4133 0 25.5C0 39.5867 12.0847 51 27 51C41.9153 51 54 39.5867 54 25.5C54 11.4133 41.9153 0 27 0ZM27 9.87097C32.2911 9.87097 36.5806 13.9222 36.5806 18.9194C36.5806 23.9165 32.2911 27.9677 27 27.9677C21.7089 27.9677 17.4194 23.9165 17.4194 18.9194C17.4194 13.9222 21.7089 9.87097 27 9.87097ZM27 45.2419C20.6093 45.2419 14.8827 42.5069 11.0504 38.2294C13.0972 34.5895 17.1036 32.0806 21.7742 32.0806C22.0355 32.0806 22.2968 32.1218 22.5472 32.1938C23.9625 32.6256 25.4431 32.9032 27 32.9032C28.5569 32.9032 30.0484 32.6256 31.4528 32.1938C31.7032 32.1218 31.9645 32.0806 32.2258 32.0806C36.8964 32.0806 40.9028 34.5895 42.9496 38.2294C39.1173 42.5069 33.3907 45.2419 27 45.2419Z"
        fill="white" />
</svg>