<svg width="56" height="46" viewBox="0 0 56 46" fill="none" xmlns="http://www.w3.org/2000/svg">
    <path
        d="M41.2725 30.7688L48.0632 4.17947H55.4922V0H44.817L43.2162 6.26797L0 6.23705L4.59452 30.7686H41.2725V30.7688ZM42.1491 10.4467L38.0263 26.5893H8.06385L5.03552 10.4201L42.1491 10.4467Z"
        fill="white" />
    <path
        d="M35.5511 45.9998C39.2364 45.9998 42.2347 43.0015 42.2347 39.3161C42.2347 35.6308 39.2364 32.6326 35.5511 32.6326H10.3697C6.68437 32.6326 3.68604 35.6308 3.68604 39.3161C3.68604 43.0015 6.68431 45.9998 10.3697 45.9998C14.0552 45.9998 17.0534 43.0015 17.0534 39.3161C17.0534 38.4311 16.88 37.5858 16.5662 36.812H29.3547C29.0408 37.5858 28.8674 38.4311 28.8674 39.3161C28.8674 43.0015 31.8657 45.9998 35.5511 45.9998ZM12.8739 39.3161C12.8739 40.697 11.7506 41.8204 10.3697 41.8204C8.98892 41.8204 7.8655 40.697 7.8655 39.3161C7.8655 37.9354 8.98885 36.812 10.3697 36.812C11.7506 36.812 12.8739 37.9354 12.8739 39.3161ZM38.0553 39.3161C38.0553 40.697 36.932 41.8204 35.5511 41.8204C34.1703 41.8204 33.047 40.697 33.047 39.3161C33.047 37.9354 34.1703 36.812 35.5511 36.812C36.932 36.812 38.0553 37.9354 38.0553 39.3161Z"
        fill="white" />
</svg>