<svg width="300" height="192" viewBox="0 0 300 192" fill="none" xmlns="http://www.w3.org/2000/svg">
    <path
        d="M204.545 82.2857C227.182 82.2857 245.318 63.9086 245.318 41.1429C245.318 18.3771 227.182 0 204.545 0C181.909 0 163.636 18.3771 163.636 41.1429C163.636 63.9086 181.909 82.2857 204.545 82.2857ZM95.4545 82.2857C118.091 82.2857 136.227 63.9086 136.227 41.1429C136.227 18.3771 118.091 0 95.4545 0C72.8182 0 54.5455 18.3771 54.5455 41.1429C54.5455 63.9086 72.8182 82.2857 95.4545 82.2857ZM95.4545 109.714C63.6818 109.714 0 125.76 0 157.714V192H190.909V157.714C190.909 125.76 127.227 109.714 95.4545 109.714ZM204.545 109.714C200.591 109.714 196.091 109.989 191.318 110.4C207.136 121.92 218.182 137.417 218.182 157.714V192H300V157.714C300 125.76 236.318 109.714 204.545 109.714Z"
        fill="#0D5661" />
</svg>