<svg xmlns="http://www.w3.org/2000/svg" x="0px" y="0px" width="64" height="64" viewBox="0 0 172 172"
    style=" fill:#000000;">
    <g fill="none" fill-rule="nonzero" stroke="none" stroke-width="1" stroke-linecap="butt" stroke-linejoin="miter"
        stroke-miterlimit="10" stroke-dasharray="" stroke-dashoffset="0" font-family="none" font-weight="none"
        font-size="none" text-anchor="none" style="mix-blend-mode: normal">
        <path d="M0,172v-172h172v172z" fill="none"></path>
        <g fill="#ffffff">
            <path
                d="M91.375,3.44c-13.50469,0 -24.6175,10.77688 -24.6175,24.08c0,5.96625 2.28438,10.57531 5.9125,15.695c2.95625,4.17906 2.795,6.43656 2.4725,7.095c-0.3225,0.65844 -1.53187,1.505 -4.73,1.29c-8.35812,-0.56437 -35.1525,-3.655 -35.1525,-3.655v0.1075c-3.23844,-0.44344 -6.47687,0.94063 -8.17,3.225c-1.63937,2.21719 -2.2575,4.82406 -2.58,7.525v0.215c-0.01344,0.08063 -0.09406,0.13438 -0.1075,0.215h0.1075c-0.04031,0.14781 -1.49156,6.83969 -3.655,35.26c-0.02687,0.44344 -0.06719,0.09406 -0.1075,0.5375h0.1075c-0.17469,1.33031 -0.02687,2.52625 0,2.6875c0.43,2.19031 1.63938,4.36719 3.655,5.375c2.01563,1.00781 4.05813,0.73906 5.805,0.215c3.50719,-1.04812 6.81281,-3.38625 10.2125,-5.805c4.01781,-2.84875 7.79375,-4.6225 12.1475,-4.6225c9.87656,0 17.7375,7.69969 17.7375,17.2c0,9.50031 -7.86094,17.2 -17.7375,17.2c-4.90469,0 -7.68625,-1.26312 -12.3625,-4.945c-2.60687,-2.0425 -5.65719,-4.25969 -8.9225,-5.4825c-1.63937,-0.60469 -3.38625,-0.9675 -5.375,-0.5375c-1.98875,0.43 -3.91031,2.06938 -4.73,4.085c-0.84656,2.06938 -0.80625,3.52063 -0.5375,5.2675c0.01344,0.17469 -0.01344,0.04031 0,0.215c2.02906,21.05656 3.05031,23.1125 3.7625,26.23c0.51063,2.23063 1.42438,4.50156 3.1175,6.3425c1.69313,1.84094 4.36719,3.225 7.31,3.225h110.1875c3.82969,0 7.29656,-1.26312 9.675,-3.655c2.37844,-2.39187 3.44,-5.71094 3.44,-9.245v-89.01c0,-3.30562 -1.22281,-6.1275 -3.1175,-8.0625c-1.89469,-1.935 -4.23281,-2.99656 -6.45,-3.655c-0.41656,-0.12094 -0.86,-0.14781 -1.29,-0.1075c0,0 -25.89406,2.56656 -35.26,3.655c-2.72781,0.30906 -3.66844,-0.29562 -4.085,-1.1825c-0.41656,-0.88687 -0.59125,-3.39969 1.935,-7.4175c1.90813,-3.03687 3.37281,-5.25406 4.4075,-7.6325c1.03469,-2.37844 1.505,-4.87781 1.505,-7.8475c0,-13.30312 -11.00531,-24.08 -24.51,-24.08zM91.375,10.32c9.87656,0 17.63,7.69969 17.63,17.2c0,2.28438 -0.26875,3.56094 -0.9675,5.16c-0.69875,1.59906 -1.94844,3.60125 -3.87,6.665c-3.225,5.13313 -4.24625,9.9975 -2.365,13.975c1.88125,3.9775 6.49031,5.68406 11.0725,5.16c8.89563,-1.03469 32.93531,-3.41312 34.2925,-3.5475c1.34375,0.45688 2.52625,0.90031 3.1175,1.505c0.67188,0.68531 1.075,1.43781 1.075,3.3325v89.01c0,2.16344 -0.60469,3.49375 -1.505,4.4075c-0.90031,0.91375 -2.27094,1.6125 -4.73,1.6125h-110.1875c-0.95406,0 -1.49156,-0.24187 -2.15,-0.9675c-0.65844,-0.72562 -1.31687,-1.96187 -1.6125,-3.225c-0.88687,-3.84312 -1.49156,-4.1925 -3.5475,-25.585c-0.02687,-0.06719 -0.06719,-0.14781 -0.1075,-0.215c-0.06719,-0.37625 0.28219,-2.2575 0.1075,-1.8275c0.12094,0 0.57781,0.01344 1.3975,0.3225c1.86781,0.69875 4.6225,2.64719 6.9875,4.515c5.2675,4.13875 10.33344,6.3425 16.6625,6.3425c13.50469,0 24.6175,-10.77687 24.6175,-24.08c0,-13.30312 -11.11281,-24.08 -24.6175,-24.08c-6.27531,0 -11.55625,2.66063 -16.125,5.9125c-3.26531,2.32469 -6.47687,4.32688 -8.17,4.8375c-0.3225,0.09406 -0.48375,0.09406 -0.645,0.1075c-0.01344,-0.09406 -0.04031,-0.12094 -0.1075,-0.43c-0.04031,-0.215 0,-0.37625 0,-0.43c0.01344,-0.14781 0.01344,-0.28219 0,-0.43c2.23063,-29.75062 3.5475,-35.1525 3.5475,-35.1525c0.04031,-0.13437 0.08063,-0.28219 0.1075,-0.43c0.24188,-2.23062 0.79281,-3.93719 1.29,-4.6225c0.49719,-0.68531 0.40313,-0.7525 1.72,-0.5375c0.06719,0 0.14781,0 0.215,0c0,0 26.45844,3.05031 35.475,3.655c4.73,0.3225 9.40625,-1.08844 11.395,-5.16c1.98875,-4.07156 0.5375,-8.90906 -3.1175,-14.0825c-3.37281,-4.75687 -4.6225,-7.33687 -4.6225,-11.7175c0,-9.50031 7.86094,-17.2 17.7375,-17.2z">
            </path>
        </g>
    </g>
</svg>