<svg width="188" height="212" viewBox="0 0 188 212" fill="none" xmlns="http://www.w3.org/2000/svg">
    <path
        d="M181.351 136.303L136 114.623L116.823 105.454C125.198 100.166 132.001 92.0052 136.452 82.1752C140.165 73.9801 142.085 65.0839 142.085 56.0837C142.085 50.7812 141.245 45.7457 140.075 40.8873C134.37 17.344 116.024 0 94 0C72.3932 0 54.3253 16.7258 48.267 39.5987C46.8682 44.846 45.9068 50.3023 45.9068 56.0837C45.9068 66.1227 48.2467 75.4825 52.2229 83.6234C56.8187 93.0674 63.6329 100.854 71.927 105.861L53.5608 114.431L6.7389 136.285C2.67297 138.195 0 142.792 0 147.926V199.485C0 206.396 4.8044 211.997 10.7353 211.997H80.276V172.52C80.2856 172.113 80.4047 171.716 80.6206 171.371L80.5917 171.354L91.9815 151.583L92.0105 151.601C92.4159 150.904 93.137 150.411 94 150.411C94.863 150.411 95.5841 150.901 95.9895 151.601L96.0011 151.592L96.1053 151.775C96.1198 151.804 96.1401 151.827 96.1517 151.856L107.391 171.362L107.376 171.371C107.592 171.717 107.712 172.115 107.721 172.523V212H177.262C183.193 212 188 206.399 188 199.488V147.926C188.009 142.81 185.379 138.256 181.351 136.303V136.303ZM107.385 123.083L107.414 123.1L96.0214 142.871L95.9924 142.853C95.7947 143.209 95.5066 143.507 95.1571 143.715C94.8077 143.924 94.4095 144.036 94.0029 144.04C93.5963 144.036 93.198 143.924 92.8486 143.715C92.4992 143.507 92.211 143.209 92.0134 142.853L91.9989 142.862L91.883 142.662C91.8744 142.641 91.857 142.624 91.8483 142.604L80.6091 123.092L80.6206 123.083C80.4046 122.737 80.2856 122.339 80.276 121.931C80.276 120.639 81.3215 119.591 82.6102 119.591H105.39C106.679 119.591 107.724 120.639 107.724 121.931C107.719 122.339 107.602 122.737 107.385 123.083V123.083Z"
        fill="#2A3261" />
</svg>