<svg width="279" height="262" viewBox="0 0 279 262" fill="none" xmlns="http://www.w3.org/2000/svg">
    <path
        d="M93.3374 80.5389L131.419 5.09144C132.15 3.57366 133.293 2.29173 134.717 1.3916C136.141 0.491462 137.789 0.00929853 139.474 0C142.665 0 145.856 1.69133 147.582 5.09144L185.663 80.5389L271.067 92.6747C273.196 93.0093 275.144 94.068 276.583 95.6721C278.022 97.2762 278.863 99.3276 278.966 101.48C279.087 102.913 278.884 104.355 278.371 105.699C277.858 107.042 277.048 108.252 276.002 109.239L214.573 167.756L229.045 250.23C230.405 257.955 222.768 264.005 216.038 260.553L139.474 221.216L62.9457 260.553C62.1452 260.968 61.2872 261.262 60.4 261.424C54.4367 262.471 48.7525 256.996 49.9381 250.23L64.4104 167.756L2.99926 109.239C2.04454 108.336 1.28566 107.246 0.769752 106.037C0.25384 104.829 -0.00810092 103.527 0.000190877 102.212C0.0010978 100.354 0.513892 98.5324 1.48229 96.9466C2.16926 95.797 3.1056 94.8163 4.22221 94.0769C5.33882 93.3376 6.60721 92.8583 7.93377 92.6747L93.3374 80.5389V80.5389ZM139.474 200.99C140.882 200.984 142.27 201.319 143.52 201.966L207.79 234.991L195.689 165.995C195.404 164.408 195.512 162.775 196.004 161.24C196.497 159.705 197.359 158.314 198.514 157.189L249.202 108.891L178.549 98.8472C177.086 98.6262 175.699 98.054 174.505 97.1794C173.312 96.3048 172.348 95.154 171.697 93.8255L139.492 30.043L139.474 30.0953V200.972V200.99Z"
        fill="#2A3261" />
</svg>