<svg width="197" height="146" viewBox="0 0 197 146" fill="none" xmlns="http://www.w3.org/2000/svg">
    <path
        d="M119.321 145.043H101.02C99.8729 145.043 98.7605 144.652 97.8671 143.933C96.9736 143.214 96.3527 142.211 96.1073 141.091L94.0609 131.619C91.331 130.422 88.7425 128.927 86.343 127.159L77.1067 130.1C76.0134 130.449 74.8338 130.413 73.7637 129.999C72.6936 129.584 71.7974 128.816 71.224 127.823L62.053 111.979C61.4856 110.985 61.2726 109.827 61.4489 108.695C61.6252 107.563 62.1803 106.525 63.0234 105.75L70.1882 99.2135C69.8624 96.2526 69.8624 93.2649 70.1882 90.304L63.0234 83.7828C62.1791 83.0073 61.6232 81.9681 61.4469 80.8353C61.2706 79.7026 61.4843 78.5435 62.053 77.5481L71.2039 61.695C71.7773 60.7011 72.6735 59.9332 73.7436 59.5189C74.8137 59.1045 75.9933 59.0687 77.0866 59.4174L86.3229 62.3587C87.5497 61.4537 88.8268 60.609 90.1441 59.8447C91.4162 59.1308 92.7235 58.4822 94.0609 57.904L96.1123 48.4414C96.3565 47.3211 96.9763 46.318 97.8688 45.5983C98.7613 44.8786 99.873 44.4856 101.02 44.4844H119.321C120.468 44.4856 121.58 44.8786 122.472 45.5983C123.365 46.318 123.984 47.3211 124.229 48.4414L126.3 57.909C127.708 58.5324 129.086 59.2313 130.418 60.0107C131.66 60.7297 132.862 61.519 134.018 62.3688L143.259 59.4274C144.352 59.0801 145.53 59.1165 146.599 59.5308C147.668 59.9451 148.564 60.7122 149.137 61.7051L158.288 77.5582C159.454 79.6046 159.052 82.194 157.317 83.7878L150.153 90.3241C150.478 93.285 150.478 96.2727 150.153 99.2336L157.317 105.77C159.052 107.369 159.454 109.953 158.288 112L149.137 127.853C148.564 128.847 147.667 129.615 146.597 130.029C145.527 130.443 144.348 130.479 143.254 130.13L134.018 127.189C131.62 128.956 129.033 130.45 126.305 131.644L124.229 141.091C123.983 142.211 123.363 143.213 122.471 143.931C121.578 144.65 120.467 145.042 119.321 145.043V145.043ZM110.15 74.652C104.816 74.652 99.7008 76.7709 95.9292 80.5426C92.1575 84.3143 90.0386 89.4298 90.0386 94.7638C90.0386 100.098 92.1575 105.213 95.9292 108.985C99.7008 112.757 104.816 114.876 110.15 114.876C115.484 114.876 120.6 112.757 124.371 108.985C128.143 105.213 130.262 100.098 130.262 94.7638C130.262 89.4298 128.143 84.3143 124.371 80.5426C120.6 76.7709 115.484 74.652 110.15 74.652V74.652Z"
        fill="#0D5661" />
    <path
        d="M163.266 1.08643V8.62834L159.495 10.5138L153.838 4.85738L146.296 12.3993L151.953 18.0557L150.067 21.8267H142.525V33.1396H150.067L151.953 36.9105L146.296 42.5669L153.838 50.1089L159.495 44.4524L163.266 46.3379V53.8798H174.579V46.3379L178.349 44.4524L184.006 50.1089L191.548 42.5669L185.891 36.9105L187.777 33.1396H195.319V21.8267H187.777L185.891 18.0557L191.548 12.3993L184.006 4.85738L178.349 10.5138L174.579 8.62834V1.08643H163.266Z"
        stroke="#0D5661" stroke-width="2" stroke-linecap="round" stroke-linejoin="round" />
    <path
        d="M168.923 35.025C173.088 35.025 176.465 31.6484 176.465 27.4831C176.465 23.3178 173.088 19.9412 168.923 19.9412C164.757 19.9412 161.381 23.3178 161.381 27.4831C161.381 31.6484 164.757 35.025 168.923 35.025Z"
        stroke="#0D5661" stroke-width="2" stroke-linecap="round" stroke-linejoin="round" />
    <path
        d="M21.791 68.3672V75.9091L18.0201 77.7946L12.3637 72.1381L4.82174 79.6801L10.4782 85.3365L8.59269 89.1074H1.05078V100.42H8.59269L10.4782 104.191L4.82174 109.848L12.3637 117.39L18.0201 111.733L21.791 113.619V121.161H33.1039V113.619L36.8749 111.733L42.5313 117.39L50.0732 109.848L44.4168 104.191L46.3023 100.42H53.8442V89.1074H46.3023L44.4168 85.3365L50.0732 79.6801L42.5313 72.1381L36.8749 77.7946L33.1039 75.9091V68.3672H21.791Z"
        stroke="#0D5661" stroke-width="2" stroke-linecap="round" stroke-linejoin="round" />
    <path
        d="M27.4482 102.306C31.6134 102.306 34.9901 98.9291 34.9901 94.7638C34.9901 90.5986 31.6134 87.2219 27.4482 87.2219C23.2829 87.2219 19.9062 90.5986 19.9062 94.7638C19.9062 98.9291 23.2829 102.306 27.4482 102.306Z"
        stroke="#0D5661" stroke-width="2" stroke-linecap="round" stroke-linejoin="round" />
</svg>