<svg width="83" height="85" viewBox="0 0 83 85" fill="none" xmlns="http://www.w3.org/2000/svg">
    <path
        d="M37.9 0.914134C22.5 5.31413 12.6 17.8141 11.3 34.5141L10.7 42.6141H5.4H0V48.1141V53.6141H5.5H11V57.3141V61.1141L5.5 60.8141L0 60.4141V66.0141V71.6141H5.5H11V78.1141V84.6141H16.5H22V78.1141V71.6141H27.5H33V66.1141V60.6141H27.5H22V57.1141V53.6141H27.5H33V48.1141V42.6141H27.5H22V36.3141C22 21.7141 32.7 10.7141 47.1 10.6141C58 10.6141 67.9 18.3141 70.7 28.9141C71.6 32.5141 72 41.6141 72 59.3141V84.6141H77.3H82.5L82.2 56.9141C81.9 23.2141 81.5 21.3141 72.7 12.0141C65.3 4.01413 58.7 0.714134 49.4 0.114134C45.4 -0.185866 40.6 0.114134 37.9 0.914134Z"
        fill="#0D5661" />
</svg>